name symmetric_stride_kinematics_IKTD_Minus_2.mot
datacolumns 38
datarows 7
range 0.00000000 0.00686643
endheader
                time	/jointset/ground_pelvis/pelvis_tilt/value	/jointset/ground_pelvis/pelvis_list/value	/jointset/ground_pelvis/pelvis_rotation/value	/jointset/ground_pelvis/pelvis_tx/value	/jointset/ground_pelvis/pelvis_ty/value	/jointset/ground_pelvis/pelvis_tz/value	/jointset/hip_r/hip_flexion_r/value	/jointset/hip_r/hip_adduction_r/value	/jointset/hip_r/hip_rotation_r/value	/jointset/knee_r/knee_angle_r/value	/jointset/ankle_r/ankle_angle_r/value	/jointset/subtalar_r/subtalar_angle_r/value	/jointset/mtp_r/mtp_angle_r/value	/jointset/hip_l/hip_flexion_l/value	/jointset/hip_l/hip_adduction_l/value	/jointset/hip_l/hip_rotation_l/value	/jointset/knee_l/knee_angle_l/value	/jointset/ankle_l/ankle_angle_l/value	/jointset/subtalar_l/subtalar_angle_l/value	/jointset/mtp_l/mtp_angle_l/value	/jointset/back/lumbar_extension/value	/jointset/back/lumbar_bending/value	/jointset/back/lumbar_rotation/value	/jointset/acromial_r/arm_flex_r/value	/jointset/acromial_r/arm_add_r/value	/jointset/acromial_r/arm_rot_r/value	/jointset/elbow_r/elbow_flex_r/value	/jointset/radioulnar_r/pro_sup_r/value	/jointset/radius_hand_r/wrist_flex_r/value	/jointset/radius_hand_r/wrist_dev_r/value	/jointset/acromial_l/arm_flex_l/value	/jointset/acromial_l/arm_add_l/value	/jointset/acromial_l/arm_rot_l/value	/jointset/elbow_l/elbow_flex_l/value	/jointset/radioulnar_l/pro_sup_l/value	/jointset/radius_hand_l/wrist_flex_l/value	/jointset/radius_hand_l/wrist_dev_l/value	
          0.00000000	         -8.36394524	         -3.34990383	         -5.78879815	         -0.00000000	          0.99281557	          0.30787048	         35.39840587	          2.40786923	          0.39750719	        -17.43392709	        -21.43961580	        -16.14818750	         -1.19968827	         29.66657876	        -10.67661649	          1.00295277	       -118.53295323	         -7.24334912	        -19.29687889	         -3.54916134	        -16.61654678	          7.82268623	         -4.37650518	         -6.09382089	        -25.76162826	        -14.26754846	        103.06331335	         77.87106922	        -23.37888702	          5.12406178	         -0.45028216	        -20.38710266	        -12.69939121	         73.51448897	         84.47310292	        -18.37224681	          5.53739742	
          0.00064722	         -8.44287074	         -3.26079015	         -6.04515137	          0.00777148	          0.99231907	          0.30800034	         35.07917326	          2.41673699	          0.38859807	        -17.27792731	        -20.93598888	        -15.63277618	         -0.91525797	         30.12745126	        -10.68684668	          0.85645081	       -118.86690559	         -7.03500819	        -19.34630828	         -3.38230904	        -16.48640659	          7.72593052	         -4.16926834	         -5.13146245	        -25.70027035	        -14.17963918	        103.37563620	         78.16229938	        -23.29474064	          5.11756915	         -0.99128274	        -20.14933999	        -12.45737690	         73.40222077	         84.20219269	        -18.29538699	          5.58999236	
          0.00269218	         -8.68801418	         -2.96668562	         -6.86294996	          0.03235383	          0.99066054	          0.30841147	         34.06275199	          2.42947101	          0.44777024	        -16.81571079	        -19.23113997	        -14.22964598	         -0.11086681	         31.59138113	        -10.73179897	          0.39032379	       -119.90772624	         -6.39358467	        -19.49482183	         -3.03815997	        -16.06659031	          7.41369752	         -3.49142125	         -2.08780529	        -25.48579135	        -13.89180946	        104.33926082	         79.22198147	        -23.01705136	          5.10202988	         -2.69574140	        -19.39781941	        -11.62796317	         73.12484983	         83.31959224	        -18.06739093	          5.80990439	
          0.00417425	         -8.86013260	         -2.74480798	         -7.46147199	          0.05019799	          0.98937761	          0.30870796	         33.31767696	          2.42392455	          0.56575301	        -16.52077119	        -17.90119706	        -13.42464259	          0.49223966	         32.65803174	        -10.77957636	          0.05227083	       -120.64798310	         -5.94570205	        -19.59812698	         -2.96039571	        -15.75631335	          7.18513930	         -2.97822396	          0.11619156	        -25.31194673	        -13.68277993	        105.02477361	         80.06550847	        -22.81076606	          5.10510135	         -3.92850716	        -18.85048617	        -10.97831789	         72.98971980	         82.71786633	        -17.90715821	          5.99002839	
          0.00417425	         -8.86013260	         -2.74480798	         -7.46147199	          0.05019799	          0.98937761	          0.30870796	         33.31767696	          2.42392455	          0.56575301	        -16.52077119	        -17.90119706	        -13.42464259	          0.49223966	         32.65803174	        -10.77957636	          0.05227083	       -120.64798310	         -5.94570205	        -19.59812698	         -2.96039571	        -15.75631335	          7.18513930	         -2.97822396	          0.11619156	        -25.31194673	        -13.68277993	        105.02477361	         80.06550847	        -22.81076606	          5.10510135	         -3.92850716	        -18.85048617	        -10.97831789	         72.98971980	         82.71786633	        -17.90715821	          5.99002839	
          0.00482148	         -8.93357960	         -2.64640804	         -7.72398964	          0.05799838	          0.98879710	          0.30883651	         32.98995212	          2.41752514	          0.63487860	        -16.40530288	        -17.29818054	        -13.12798277	          0.76614836	         33.12505768	        -10.80522325	         -0.09470971	       -120.96740480	         -5.75541141	        -19.64321423	         -2.95862959	        -15.61964960	          7.08568081	         -2.74831529	          1.07695600	        -25.23152432	        -13.59355654	        105.32300537	         80.43438817	        -22.72165464	          5.11087389	         -4.46662474	        -18.61028304	        -10.68494726	         72.94634656	         82.47058385	        -17.83636058	          6.07026255	
          0.00686643	         -9.15865814	         -2.33191527	         -8.55598848	          0.08267812	          0.98688487	          0.30923522	         31.94693865	          2.37906988	          0.90845273	        -16.11834996	        -15.23243973	        -12.30024319	          1.92706230	         34.60535404	        -10.90727075	         -0.55291277	       -121.96059974	         -5.18630686	        -19.79498091	         -2.83193832	        -15.18348643	          6.77655834	         -1.99809618	          4.09930627	        -24.96111095	        -13.32888148	        106.26612102	         81.57744178	        -22.45240915	          5.12436625	         -6.16372269	        -17.85133918	         -9.71328026	         72.86189897	         81.69205495	        -17.60738629	          6.35612127	
